<svg width="22" height="19" viewBox="0 0 22 19" fill="none" xmlns="http://www.w3.org/2000/svg">
<path d="M14.925 10.075L13.475 8.625C13.625 7.84167 13.4 7.10833 12.8 6.425C12.2 5.74167 11.425 5.475 10.475 5.625L9.025 4.175C9.30833 4.04167 9.59583 3.94167 9.8875 3.875C10.1792 3.80833 10.4917 3.775 10.825 3.775C12.075 3.775 13.1375 4.2125 14.0125 5.0875C14.8875 5.9625 15.325 7.025 15.325 8.275C15.325 8.60833 15.2917 8.92083 15.225 9.2125C15.1583 9.50417 15.0583 9.79167 14.925 10.075ZM18.125 13.225L16.675 11.825C17.3083 11.3417 17.8708 10.8125 18.3625 10.2375C18.8542 9.6625 19.275 9.00833 19.625 8.275C18.7917 6.59167 17.5958 5.25417 16.0375 4.2625C14.4792 3.27083 12.7417 2.775 10.825 2.775C10.3417 2.775 9.86667 2.80833 9.4 2.875C8.93333 2.94167 8.475 3.04167 8.025 3.175L6.475 1.625C7.15833 1.34167 7.85833 1.12917 8.575 0.9875C9.29167 0.845833 10.0417 0.775 10.825 0.775C13.2083 0.775 15.35 1.40417 17.25 2.6625C19.15 3.92083 20.575 5.55833 21.525 7.575C21.575 7.65833 21.6083 7.7625 21.625 7.8875C21.6417 8.0125 21.65 8.14167 21.65 8.275C21.65 8.40833 21.6375 8.5375 21.6125 8.6625C21.5875 8.7875 21.5583 8.89167 21.525 8.975C21.1417 9.825 20.6625 10.6083 20.0875 11.325C19.5125 12.0417 18.8583 12.675 18.125 13.225ZM17.925 18.675L14.425 15.225C13.8417 15.4083 13.2542 15.5458 12.6625 15.6375C12.0708 15.7292 11.4583 15.775 10.825 15.775C8.44167 15.775 6.3 15.1458 4.4 13.8875C2.5 12.6292 1.075 10.9917 0.125 8.975C0.075 8.89167 0.0416667 8.7875 0.025 8.6625C0.00833333 8.5375 0 8.40833 0 8.275C0 8.14167 0.00833333 8.01667 0.025 7.9C0.0416667 7.78333 0.075 7.68333 0.125 7.6C0.475 6.85 0.891667 6.15833 1.375 5.525C1.85833 4.89167 2.39167 4.30833 2.975 3.775L0.9 1.675C0.716667 1.49167 0.625 1.2625 0.625 0.9875C0.625 0.7125 0.725 0.475 0.925 0.275C1.10833 0.0916667 1.34167 0 1.625 0C1.90833 0 2.14167 0.0916667 2.325 0.275L19.325 17.275C19.5083 17.4583 19.6042 17.6875 19.6125 17.9625C19.6208 18.2375 19.525 18.475 19.325 18.675C19.1417 18.8583 18.9083 18.95 18.625 18.95C18.3417 18.95 18.1083 18.8583 17.925 18.675ZM4.375 5.175C3.89167 5.60833 3.45 6.08333 3.05 6.6C2.65 7.11667 2.30833 7.675 2.025 8.275C2.85833 9.95833 4.05417 11.2958 5.6125 12.2875C7.17083 13.2792 8.90833 13.775 10.825 13.775C11.1583 13.775 11.4833 13.7542 11.8 13.7125C12.1167 13.6708 12.4417 13.625 12.775 13.575L11.875 12.625C11.6917 12.675 11.5167 12.7125 11.35 12.7375C11.1833 12.7625 11.0083 12.775 10.825 12.775C9.575 12.775 8.5125 12.3375 7.6375 11.4625C6.7625 10.5875 6.325 9.525 6.325 8.275C6.325 8.09167 6.3375 7.91667 6.3625 7.75C6.3875 7.58333 6.425 7.40833 6.475 7.225L4.375 5.175Z" fill="#A8A8A8"/>
</svg>
