<svg width="22" height="15" viewBox="0 0 22 15" fill="none" xmlns="http://www.w3.org/2000/svg">
<path d="M10.825 12C12.075 12 13.1375 11.5625 14.0125 10.6875C14.8875 9.8125 15.325 8.75 15.325 7.5C15.325 6.25 14.8875 5.1875 14.0125 4.3125C13.1375 3.4375 12.075 3 10.825 3C9.575 3 8.5125 3.4375 7.6375 4.3125C6.7625 5.1875 6.325 6.25 6.325 7.5C6.325 8.75 6.7625 9.8125 7.6375 10.6875C8.5125 11.5625 9.575 12 10.825 12ZM10.825 10.2C10.075 10.2 9.4375 9.9375 8.9125 9.4125C8.3875 8.8875 8.125 8.25 8.125 7.5C8.125 6.75 8.3875 6.1125 8.9125 5.5875C9.4375 5.0625 10.075 4.8 10.825 4.8C11.575 4.8 12.2125 5.0625 12.7375 5.5875C13.2625 6.1125 13.525 6.75 13.525 7.5C13.525 8.25 13.2625 8.8875 12.7375 9.4125C12.2125 9.9375 11.575 10.2 10.825 10.2ZM10.825 15C8.50833 15 6.39167 14.3875 4.475 13.1625C2.55833 11.9375 1.10833 10.2833 0.125 8.2C0.075 8.11667 0.0416667 8.0125 0.025 7.8875C0.00833333 7.7625 0 7.63333 0 7.5C0 7.36667 0.00833333 7.2375 0.025 7.1125C0.0416667 6.9875 0.075 6.88333 0.125 6.8C1.10833 4.71667 2.55833 3.0625 4.475 1.8375C6.39167 0.6125 8.50833 0 10.825 0C13.1417 0 15.2583 0.6125 17.175 1.8375C19.0917 3.0625 20.5417 4.71667 21.525 6.8C21.575 6.88333 21.6083 6.9875 21.625 7.1125C21.6417 7.2375 21.65 7.36667 21.65 7.5C21.65 7.63333 21.6417 7.7625 21.625 7.8875C21.6083 8.0125 21.575 8.11667 21.525 8.2C20.5417 10.2833 19.0917 11.9375 17.175 13.1625C15.2583 14.3875 13.1417 15 10.825 15ZM10.825 13C12.7083 13 14.4375 12.5042 16.0125 11.5125C17.5875 10.5208 18.7917 9.18333 19.625 7.5C18.7917 5.81667 17.5875 4.47917 16.0125 3.4875C14.4375 2.49583 12.7083 2 10.825 2C8.94167 2 7.2125 2.49583 5.6375 3.4875C4.0625 4.47917 2.85833 5.81667 2.025 7.5C2.85833 9.18333 4.0625 10.5208 5.6375 11.5125C7.2125 12.5042 8.94167 13 10.825 13Z" fill="#A8A8A8"/>
</svg>
