<svg width="144" height="64" viewBox="0 0 144 64" fill="none" xmlns="http://www.w3.org/2000/svg">
<g filter="url(#filter0_d_156_926)">
<rect x="4" y="4" width="136" height="56" rx="10" fill="white"/>
<path d="M21.7614 24.4545H23.8636L28.8068 36.5284H28.9773L33.9205 24.4545H36.0227V39H34.375V27.9489H34.233L29.6875 39H28.0966L23.5511 27.9489H23.4091V39H21.7614V24.4545ZM43.9009 39.2273C42.8498 39.2273 41.9431 38.9953 41.1808 38.5312C40.4232 38.0625 39.8384 37.4091 39.4265 36.571C39.0193 35.7282 38.8157 34.7481 38.8157 33.6307C38.8157 32.5133 39.0193 31.5284 39.4265 30.6761C39.8384 29.8191 40.4113 29.1515 41.1452 28.6733C41.8839 28.1903 42.7456 27.9489 43.7305 27.9489C44.2987 27.9489 44.8597 28.0436 45.4137 28.233C45.9677 28.4223 46.4719 28.7301 46.9265 29.1562C47.381 29.5777 47.7433 30.1364 48.0131 30.8324C48.283 31.5284 48.418 32.3854 48.418 33.4034V34.1136H40.0089V32.6648H46.7134C46.7134 32.0492 46.5903 31.5 46.3441 31.017C46.1026 30.5341 45.757 30.1529 45.3072 29.8736C44.8621 29.5942 44.3365 29.4545 43.7305 29.4545C43.0629 29.4545 42.4852 29.6203 41.9975 29.9517C41.5146 30.2784 41.1429 30.7045 40.8825 31.2301C40.622 31.7557 40.4918 32.3191 40.4918 32.9205V33.8864C40.4918 34.7102 40.6339 35.4086 40.918 35.9815C41.2068 36.5497 41.6069 36.983 42.1183 37.2812C42.6296 37.5748 43.2238 37.7216 43.9009 37.7216C44.3413 37.7216 44.739 37.66 45.0941 37.5369C45.454 37.4091 45.7641 37.2197 46.0245 36.9688C46.2849 36.7131 46.4862 36.3958 46.6282 36.017L48.2475 36.4716C48.0771 37.0208 47.7906 37.5038 47.3881 37.9205C46.9857 38.3324 46.4885 38.6544 45.8967 38.8864C45.3048 39.1136 44.6396 39.2273 43.9009 39.2273ZM55.087 39.2273C54.1779 39.2273 53.3754 38.9976 52.6793 38.5384C51.9833 38.0743 51.4388 37.4209 51.0458 36.5781C50.6528 35.7306 50.4563 34.7292 50.4563 33.5739C50.4563 32.428 50.6528 31.4337 51.0458 30.5909C51.4388 29.7481 51.9857 29.0971 52.6864 28.6378C53.3872 28.1785 54.1969 27.9489 55.1154 27.9489C55.8256 27.9489 56.3867 28.0672 56.7987 28.304C57.2153 28.536 57.5326 28.8011 57.7504 29.0994C57.9729 29.393 58.1457 29.6345 58.2688 29.8239H58.4109V24.4545H60.087V39H58.4677V37.3239H58.2688C58.1457 37.5227 57.9705 37.7737 57.7433 38.0767C57.516 38.375 57.1916 38.6425 56.7702 38.8793C56.3488 39.1113 55.7878 39.2273 55.087 39.2273ZM55.3143 37.7216C55.9866 37.7216 56.5548 37.5464 57.0188 37.196C57.4828 36.8409 57.8356 36.3509 58.0771 35.7259C58.3185 35.0961 58.4393 34.3693 58.4393 33.5455C58.4393 32.7311 58.3209 32.0185 58.0842 31.4077C57.8474 30.7921 57.497 30.3139 57.033 29.973C56.569 29.6274 55.9961 29.4545 55.3143 29.4545C54.604 29.4545 54.0122 29.6368 53.5387 30.0014C53.07 30.3613 52.7172 30.8513 52.4805 31.4716C52.2485 32.0871 52.1325 32.7784 52.1325 33.5455C52.1325 34.322 52.2508 35.0275 52.4876 35.6619C52.729 36.2917 53.0842 36.7936 53.5529 37.1676C54.0264 37.5369 54.6135 37.7216 55.3143 37.7216ZM63.3896 39V28.0909H65.0657V39H63.3896ZM64.2418 26.2727C63.9151 26.2727 63.6334 26.1615 63.3967 25.9389C63.1647 25.7164 63.0487 25.4489 63.0487 25.1364C63.0487 24.8239 63.1647 24.5563 63.3967 24.3338C63.6334 24.1113 63.9151 24 64.2418 24C64.5685 24 64.8479 24.1113 65.0799 24.3338C65.3166 24.5563 65.435 24.8239 65.435 25.1364C65.435 25.4489 65.3166 25.7164 65.0799 25.9389C64.8479 26.1615 64.5685 26.2727 64.2418 26.2727ZM75.0107 34.5398V28.0909H76.6868V39H75.0107V37.1534H74.897C74.6413 37.7074 74.2436 38.1785 73.7038 38.5668C73.1641 38.9503 72.4822 39.142 71.6584 39.142C70.9766 39.142 70.3705 38.9929 69.8402 38.6946C69.3099 38.3916 68.8932 37.937 68.5902 37.331C68.2872 36.7202 68.1357 35.9508 68.1357 35.0227V28.0909H69.8118V34.9091C69.8118 35.7045 70.0343 36.339 70.4794 36.8125C70.9292 37.286 71.5021 37.5227 72.1982 37.5227C72.6148 37.5227 73.0386 37.4162 73.4695 37.2031C73.9051 36.9901 74.2696 36.6634 74.5632 36.223C74.8615 35.7827 75.0107 35.2216 75.0107 34.5398ZM79.7567 39V28.0909H81.3761V29.7955H81.5181C81.7454 29.2131 82.1123 28.7609 82.619 28.4389C83.1256 28.1122 83.734 27.9489 84.4442 27.9489C85.1639 27.9489 85.7629 28.1122 86.2411 28.4389C86.7241 28.7609 87.1005 29.2131 87.3704 29.7955H87.484C87.7634 29.232 88.1824 28.7846 88.7411 28.4531C89.2998 28.117 89.9698 27.9489 90.7511 27.9489C91.7264 27.9489 92.5243 28.2543 93.1445 28.8651C93.7648 29.4711 94.0749 30.4157 94.0749 31.6989V39H92.3988V31.6989C92.3988 30.8939 92.1786 30.3187 91.7383 29.973C91.2979 29.6274 90.7795 29.4545 90.1829 29.4545C89.4158 29.4545 88.8216 29.6866 88.4002 30.1506C87.9788 30.6098 87.7681 31.1922 87.7681 31.8977V39H86.0636V31.5284C86.0636 30.9081 85.8623 30.4086 85.4599 30.0298C85.0574 29.6463 84.5389 29.4545 83.9045 29.4545C83.4689 29.4545 83.0617 29.5705 82.6829 29.8026C82.3088 30.0346 82.0058 30.3565 81.7738 30.7685C81.5465 31.1757 81.4329 31.6468 81.4329 32.1818V39H79.7567Z" fill="black"/>
<g clip-path="url(#clip0_156_926)">
<path d="M122.904 35.7253H105.096C104.805 35.7253 104.526 35.609 104.321 35.402C104.115 35.195 104 34.9142 104 34.6214C104 34.3287 104.115 34.0479 104.321 33.8409C104.526 33.6339 104.805 33.5176 105.096 33.5176H122.904C123.195 33.5176 123.474 33.6339 123.679 33.8409C123.885 34.0479 124 34.3287 124 34.6214C124 34.9142 123.885 35.195 123.679 35.402C123.474 35.609 123.195 35.7253 122.904 35.7253Z" fill="#FFA800"/>
<path d="M122.904 30.4821H105.096C104.805 30.4821 104.526 30.3658 104.321 30.1588C104.115 29.9518 104 29.671 104 29.3783C104 29.0855 104.115 28.8047 104.321 28.5977C104.526 28.3907 104.805 28.2744 105.096 28.2744H122.904C123.195 28.2744 123.474 28.3907 123.679 28.5977C123.885 28.8047 124 29.0855 124 29.3783C124 29.671 123.885 29.9518 123.679 30.1588C123.474 30.3658 123.195 30.4821 122.904 30.4821Z" fill="#FFA800"/>
</g>
</g>
<defs>
<filter id="filter0_d_156_926" x="0" y="0" width="144" height="64" filterUnits="userSpaceOnUse" color-interpolation-filters="sRGB">
<feFlood flood-opacity="0" result="BackgroundImageFix"/>
<feColorMatrix in="SourceAlpha" type="matrix" values="0 0 0 0 0 0 0 0 0 0 0 0 0 0 0 0 0 0 127 0" result="hardAlpha"/>
<feOffset/>
<feGaussianBlur stdDeviation="2"/>
<feColorMatrix type="matrix" values="0 0 0 0 0 0 0 0 0 0 0 0 0 0 0 0 0 0 0.1 0"/>
<feBlend mode="normal" in2="BackgroundImageFix" result="effect1_dropShadow_156_926"/>
<feBlend mode="normal" in="SourceGraphic" in2="effect1_dropShadow_156_926" result="shape"/>
</filter>
<clipPath id="clip0_156_926">
<rect width="20" height="7.45098" fill="white" transform="translate(104 28.2744)"/>
</clipPath>
</defs>
</svg>
