<svg width="144" height="64" viewBox="0 0 144 64" fill="none" xmlns="http://www.w3.org/2000/svg">
<g filter="url(#filter0_d_156_933)">
<rect x="4" y="4" width="136" height="56" rx="10" fill="white"/>
<path d="M39.7614 39V24.4545H41.5227V37.4375H48.2841V39H39.7614ZM55.2159 39.2273C54.2311 39.2273 53.367 38.9929 52.6236 38.5241C51.8849 38.0554 51.3073 37.3996 50.8906 36.5568C50.4787 35.714 50.2727 34.7292 50.2727 33.6023C50.2727 32.4659 50.4787 31.474 50.8906 30.6264C51.3073 29.7789 51.8849 29.1207 52.6236 28.652C53.367 28.1832 54.2311 27.9489 55.2159 27.9489C56.2008 27.9489 57.0625 28.1832 57.8011 28.652C58.5445 29.1207 59.1222 29.7789 59.5341 30.6264C59.9508 31.474 60.1591 32.4659 60.1591 33.6023C60.1591 34.7292 59.9508 35.714 59.5341 36.5568C59.1222 37.3996 58.5445 38.0554 57.8011 38.5241C57.0625 38.9929 56.2008 39.2273 55.2159 39.2273ZM55.2159 37.7216C55.964 37.7216 56.5795 37.5298 57.0625 37.1463C57.5455 36.7628 57.9029 36.2585 58.1349 35.6335C58.367 35.0085 58.483 34.3314 58.483 33.6023C58.483 32.8731 58.367 32.1937 58.1349 31.5639C57.9029 30.9342 57.5455 30.4252 57.0625 30.0369C56.5795 29.6487 55.964 29.4545 55.2159 29.4545C54.4678 29.4545 53.8523 29.6487 53.3693 30.0369C52.8864 30.4252 52.5289 30.9342 52.2969 31.5639C52.0649 32.1937 51.9489 32.8731 51.9489 33.6023C51.9489 34.3314 52.0649 35.0085 52.2969 35.6335C52.5289 36.2585 52.8864 36.7628 53.3693 37.1463C53.8523 37.5298 54.4678 37.7216 55.2159 37.7216ZM64.8182 39L61.4943 28.0909H63.2557L65.6136 36.4432H65.7273L68.0568 28.0909H69.8466L72.1477 36.4148H72.2614L74.6193 28.0909H76.3807L73.0568 39H71.4091L69.0227 30.6193H68.8523L66.4659 39H64.8182Z" fill="black"/>
<path d="M96 33.5061C95.7654 33.5065 95.5369 33.4317 95.348 33.2926L86.4449 26.7229C86.3291 26.6373 86.2312 26.5298 86.157 26.4065C86.0827 26.2831 86.0335 26.1464 86.0121 26.004C85.969 25.7166 86.0419 25.4237 86.2148 25.1899C86.3877 24.9562 86.6465 24.8006 86.9342 24.7575C87.2219 24.7144 87.5149 24.7872 87.7489 24.96L96 31.0425L104.251 24.96C104.367 24.8744 104.499 24.8125 104.638 24.7778C104.778 24.743 104.923 24.7361 105.066 24.7575C105.208 24.7788 105.345 24.828 105.469 24.9022C105.592 24.9764 105.7 25.0742 105.785 25.1899C105.871 25.3057 105.933 25.4372 105.968 25.5768C106.002 25.7165 106.009 25.8617 105.988 26.004C105.966 26.1464 105.917 26.2831 105.843 26.4065C105.769 26.5298 105.671 26.6373 105.555 26.7229L96.652 33.2926C96.4631 33.4317 96.2346 33.5065 96 33.5061Z" fill="#7AE229"/>
<path d="M96 39.2547C95.7654 39.2551 95.5369 39.1802 95.348 39.0412L86.4449 32.4714C86.211 32.2986 86.0553 32.0401 86.0121 31.7526C85.969 31.4651 86.0419 31.1723 86.2148 30.9385C86.3877 30.7047 86.6465 30.5491 86.9342 30.506C87.2219 30.4629 87.5149 30.5358 87.7489 30.7085L96 36.791L104.251 30.7085C104.485 30.5358 104.778 30.4629 105.066 30.506C105.354 30.5491 105.612 30.7047 105.785 30.9385C105.958 31.1723 106.031 31.4651 105.988 31.7526C105.945 32.0401 105.789 32.2986 105.555 32.4714L96.652 39.0412C96.4631 39.1802 96.2346 39.2551 96 39.2547Z" fill="#7AE229"/>
</g>
<defs>
<filter id="filter0_d_156_933" x="0" y="0" width="144" height="64" filterUnits="userSpaceOnUse" color-interpolation-filters="sRGB">
<feFlood flood-opacity="0" result="BackgroundImageFix"/>
<feColorMatrix in="SourceAlpha" type="matrix" values="0 0 0 0 0 0 0 0 0 0 0 0 0 0 0 0 0 0 127 0" result="hardAlpha"/>
<feOffset/>
<feGaussianBlur stdDeviation="2"/>
<feColorMatrix type="matrix" values="0 0 0 0 0 0 0 0 0 0 0 0 0 0 0 0 0 0 0.1 0"/>
<feBlend mode="normal" in2="BackgroundImageFix" result="effect1_dropShadow_156_933"/>
<feBlend mode="normal" in="SourceGraphic" in2="effect1_dropShadow_156_933" result="shape"/>
</filter>
</defs>
</svg>
