<svg width="144" height="64" viewBox="0 0 144 64" fill="none" xmlns="http://www.w3.org/2000/svg">
<g filter="url(#filter0_d_156_919)">
<rect x="4" y="4" width="136" height="56" rx="10" fill="white"/>
<path d="M36.8068 24.4545H38.5682V34.0852C38.5682 35.0795 38.3338 35.9673 37.8651 36.7486C37.401 37.5251 36.7453 38.1383 35.8977 38.5881C35.0502 39.0331 34.0559 39.2557 32.9148 39.2557C31.7737 39.2557 30.7794 39.0331 29.9318 38.5881C29.0843 38.1383 28.4261 37.5251 27.9574 36.7486C27.4934 35.9673 27.2614 35.0795 27.2614 34.0852V24.4545H29.0227V33.9432C29.0227 34.6534 29.179 35.2855 29.4915 35.8395C29.804 36.3887 30.2491 36.822 30.8267 37.1392C31.4091 37.4517 32.1051 37.608 32.9148 37.608C33.7244 37.608 34.4205 37.4517 35.0028 37.1392C35.5852 36.822 36.0303 36.3887 36.3381 35.8395C36.6506 35.2855 36.8068 34.6534 36.8068 33.9432V24.4545ZM41.8583 39V28.0909H43.4776V29.7386H43.5913C43.7901 29.1989 44.15 28.7609 44.6708 28.4247C45.1916 28.0885 45.7788 27.9205 46.4322 27.9205C46.5553 27.9205 46.7092 27.9228 46.8938 27.9276C47.0785 27.9323 47.2182 27.9394 47.3129 27.9489V29.6534C47.256 29.6392 47.1258 29.6179 46.9222 29.5895C46.7234 29.5563 46.5127 29.5398 46.2901 29.5398C45.7598 29.5398 45.2863 29.651 44.8697 29.8736C44.4577 30.0914 44.131 30.3944 43.8896 30.7827C43.6528 31.1662 43.5344 31.6042 43.5344 32.0966V39H41.8583ZM53.3711 43.3182C52.5614 43.3182 51.8654 43.214 51.283 43.0057C50.7006 42.8021 50.2153 42.5322 49.8271 42.196C49.4435 41.8646 49.1381 41.5095 48.9109 41.1307L50.2461 40.1932C50.3976 40.392 50.5894 40.6193 50.8214 40.875C51.0534 41.1354 51.3706 41.3603 51.7731 41.5497C52.1803 41.7438 52.7129 41.8409 53.3711 41.8409C54.2518 41.8409 54.9786 41.6278 55.5515 41.2017C56.1244 40.7756 56.4109 40.108 56.4109 39.1989V36.983H56.2688C56.1457 37.1818 55.9705 37.428 55.7433 37.7216C55.5207 38.0104 55.1987 38.2685 54.7773 38.4957C54.3607 38.7183 53.7972 38.8295 53.087 38.8295C52.2063 38.8295 51.4156 38.6212 50.7148 38.2045C50.0188 37.7879 49.4672 37.1818 49.06 36.3864C48.6576 35.5909 48.4563 34.625 48.4563 33.4886C48.4563 32.3712 48.6528 31.3982 49.0458 30.5696C49.4388 29.7363 49.9857 29.0923 50.6864 28.6378C51.3872 28.1785 52.1969 27.9489 53.1154 27.9489C53.8256 27.9489 54.3891 28.0672 54.8058 28.304C55.2272 28.536 55.5491 28.8011 55.7717 29.0994C55.9989 29.393 56.1741 29.6345 56.2972 29.8239H56.4677V28.0909H58.087V39.3125C58.087 40.25 57.8739 41.0123 57.4478 41.5994C57.0264 42.1913 56.4582 42.6245 55.7433 42.8991C55.033 43.1785 54.2423 43.3182 53.3711 43.3182ZM53.3143 37.3239C53.9866 37.3239 54.5548 37.17 55.0188 36.8622C55.4828 36.5545 55.8356 36.1117 56.0771 35.5341C56.3185 34.9564 56.4393 34.2652 56.4393 33.4602C56.4393 32.6742 56.3209 31.9806 56.0842 31.3793C55.8474 30.7779 55.497 30.3068 55.033 29.9659C54.569 29.625 53.9961 29.4545 53.3143 29.4545C52.604 29.4545 52.0122 29.6345 51.5387 29.9943C51.07 30.3542 50.7172 30.8371 50.4805 31.4432C50.2485 32.0492 50.1325 32.7216 50.1325 33.4602C50.1325 34.2178 50.2508 34.8878 50.4876 35.4702C50.729 36.0478 51.0842 36.5024 51.5529 36.8338C52.0264 37.1605 52.6135 37.3239 53.3143 37.3239ZM65.729 39.2273C64.6779 39.2273 63.7712 38.9953 63.0089 38.5312C62.2513 38.0625 61.6665 37.4091 61.2546 36.571C60.8474 35.7282 60.6438 34.7481 60.6438 33.6307C60.6438 32.5133 60.8474 31.5284 61.2546 30.6761C61.6665 29.8191 62.2395 29.1515 62.9734 28.6733C63.712 28.1903 64.5737 27.9489 65.5586 27.9489C66.1268 27.9489 66.6879 28.0436 67.2418 28.233C67.7958 28.4223 68.3001 28.7301 68.7546 29.1562C69.2092 29.5777 69.5714 30.1364 69.8413 30.8324C70.1112 31.5284 70.2461 32.3854 70.2461 33.4034V34.1136H61.837V32.6648H68.5415C68.5415 32.0492 68.4184 31.5 68.1722 31.017C67.9308 30.5341 67.5851 30.1529 67.1353 29.8736C66.6902 29.5942 66.1647 29.4545 65.5586 29.4545C64.891 29.4545 64.3133 29.6203 63.8256 29.9517C63.3427 30.2784 62.971 30.7045 62.7106 31.2301C62.4502 31.7557 62.32 32.3191 62.32 32.9205V33.8864C62.32 34.7102 62.462 35.4086 62.7461 35.9815C63.0349 36.5497 63.435 36.983 63.9464 37.2812C64.4577 37.5748 65.052 37.7216 65.729 37.7216C66.1694 37.7216 66.5671 37.66 66.9222 37.5369C67.2821 37.4091 67.5922 37.2197 67.8526 36.9688C68.113 36.7131 68.3143 36.3958 68.4563 36.017L70.0756 36.4716C69.9052 37.0208 69.6187 37.5038 69.2163 37.9205C68.8138 38.3324 68.3166 38.6544 67.7248 38.8864C67.1329 39.1136 66.4677 39.2273 65.729 39.2273ZM74.4719 32.4375V39H72.7958V28.0909H74.4151V29.7955H74.5572C74.8129 29.2415 75.2011 28.7964 75.7219 28.4602C76.2428 28.1193 76.9151 27.9489 77.739 27.9489C78.4776 27.9489 79.1239 28.1004 79.6779 28.4034C80.2319 28.7017 80.6628 29.1562 80.9705 29.767C81.2783 30.3731 81.4322 31.1402 81.4322 32.0682V39H79.756V32.1818C79.756 31.3248 79.5335 30.6572 79.0884 30.179C78.6433 29.696 78.0326 29.4545 77.256 29.4545C76.721 29.4545 76.2428 29.5705 75.8214 29.8026C75.4047 30.0346 75.0756 30.3731 74.8342 30.8182C74.5927 31.2633 74.4719 31.803 74.4719 32.4375ZM89.2393 28.0909V29.5114H83.5859V28.0909H89.2393ZM85.2337 25.4773H86.9098V35.875C86.9098 36.3485 86.9785 36.7036 87.1158 36.9403C87.2578 37.1723 87.4377 37.3286 87.6555 37.4091C87.8781 37.4848 88.1125 37.5227 88.3587 37.5227C88.5433 37.5227 88.6948 37.5133 88.8132 37.4943C88.9316 37.4706 89.0263 37.4517 89.0973 37.4375L89.4382 38.9432C89.3246 38.9858 89.166 39.0284 88.9624 39.071C88.7588 39.1184 88.5007 39.142 88.1882 39.142C87.7147 39.142 87.2507 39.0402 86.7962 38.8366C86.3464 38.633 85.9723 38.3229 85.674 37.9062C85.3804 37.4896 85.2337 36.964 85.2337 36.3295V25.4773Z" fill="black"/>
<g clip-path="url(#clip0_156_919)">
<path d="M117.404 39.2547C117.17 39.2551 116.941 39.1803 116.752 39.0412L108.5 32.958L100.248 39.0412C100.132 39.1267 100.001 39.1887 99.8609 39.2234C99.7211 39.2582 99.5758 39.2651 99.4333 39.2437C99.2908 39.2223 99.154 39.1732 99.0305 39.099C98.9071 39.0247 98.7995 38.927 98.7138 38.8112C98.6282 38.6954 98.5662 38.5639 98.5315 38.4243C98.4967 38.2846 98.4898 38.1394 98.5112 37.997C98.5543 37.7095 98.71 37.4509 98.944 37.2781L107.848 30.7076C108.037 30.568 108.265 30.4927 108.5 30.4927C108.735 30.4927 108.964 30.568 109.152 30.7076L118.056 37.2781C118.242 37.415 118.38 37.6071 118.45 37.827C118.52 38.0469 118.519 38.2833 118.447 38.5025C118.375 38.7216 118.235 38.9124 118.048 39.0475C117.86 39.1826 117.635 39.2551 117.404 39.2547Z" fill="#FF3D00"/>
<path d="M117.404 33.5057C117.17 33.5061 116.941 33.4312 116.752 33.2921L108.5 27.209L100.248 33.2921C100.014 33.4649 99.721 33.5378 99.4333 33.4947C99.1456 33.4515 98.8868 33.296 98.7138 33.0622C98.5409 32.8284 98.468 32.5355 98.5112 32.248C98.5543 31.9605 98.71 31.7019 98.944 31.5291L107.848 24.9586C108.037 24.819 108.265 24.7437 108.5 24.7437C108.735 24.7437 108.964 24.819 109.152 24.9586L118.056 31.5291C118.242 31.666 118.38 31.8581 118.45 32.078C118.52 32.2979 118.519 32.5343 118.447 32.7534C118.375 32.9726 118.235 33.1634 118.048 33.2985C117.86 33.4336 117.635 33.5061 117.404 33.5057Z" fill="#FF3D00"/>
</g>
</g>
<defs>
<filter id="filter0_d_156_919" x="0" y="0" width="144" height="64" filterUnits="userSpaceOnUse" color-interpolation-filters="sRGB">
<feFlood flood-opacity="0" result="BackgroundImageFix"/>
<feColorMatrix in="SourceAlpha" type="matrix" values="0 0 0 0 0 0 0 0 0 0 0 0 0 0 0 0 0 0 127 0" result="hardAlpha"/>
<feOffset/>
<feGaussianBlur stdDeviation="2"/>
<feColorMatrix type="matrix" values="0 0 0 0 0 0 0 0 0 0 0 0 0 0 0 0 0 0 0.1 0"/>
<feBlend mode="normal" in2="BackgroundImageFix" result="effect1_dropShadow_156_919"/>
<feBlend mode="normal" in="SourceGraphic" in2="effect1_dropShadow_156_919" result="shape"/>
</filter>
<clipPath id="clip0_156_919">
<rect width="20" height="14.5098" fill="white" transform="translate(98.5 24.7451)"/>
</clipPath>
</defs>
</svg>
