<svg width="20" height="20" viewBox="0 0 20 20" fill="none" xmlns="http://www.w3.org/2000/svg">
<path d="M10.8333 19.5C10.5264 19.5 10.2691 19.3962 10.0615 19.1885C9.85382 18.9809 9.75 18.7236 9.75 18.4167C9.75 18.1097 9.85382 17.8524 10.0615 17.6448C10.2691 17.4372 10.5264 17.3333 10.8333 17.3333H17.3333V2.16667H10.8333C10.5264 2.16667 10.2691 2.06285 10.0615 1.85521C9.85382 1.64757 9.75 1.39028 9.75 1.08333C9.75 0.776389 9.85382 0.519097 10.0615 0.311458C10.2691 0.103819 10.5264 0 10.8333 0H17.3333C17.9292 0 18.4392 0.212153 18.8635 0.636458C19.2878 1.06076 19.5 1.57083 19.5 2.16667V17.3333C19.5 17.9292 19.2878 18.4392 18.8635 18.8635C18.4392 19.2878 17.9292 19.5 17.3333 19.5H10.8333ZM8.85625 10.8333H1.08333C0.776389 10.8333 0.519097 10.7295 0.311458 10.5219C0.103819 10.3142 0 10.0569 0 9.75C0 9.44306 0.103819 9.18576 0.311458 8.97813C0.519097 8.77049 0.776389 8.66667 1.08333 8.66667H8.85625L6.825 6.63542C6.62639 6.43681 6.52708 6.19306 6.52708 5.90417C6.52708 5.61528 6.62639 5.3625 6.825 5.14583C7.02361 4.92917 7.27639 4.81632 7.58333 4.80729C7.89028 4.79826 8.15208 4.90208 8.36875 5.11875L12.2417 8.99167C12.4583 9.20833 12.5667 9.46111 12.5667 9.75C12.5667 10.0389 12.4583 10.2917 12.2417 10.5083L8.36875 14.3813C8.15208 14.5979 7.89479 14.7017 7.59688 14.6927C7.29896 14.6837 7.04167 14.5708 6.825 14.3542C6.62639 14.1375 6.5316 13.8802 6.54063 13.5823C6.54965 13.2844 6.65347 13.0361 6.85208 12.8375L8.85625 10.8333Z" fill="#CDCDCD"/>
</svg>
