<svg width="35" height="26" viewBox="0 0 35 26" fill="none" xmlns="http://www.w3.org/2000/svg">
<g clip-path="url(#clip0_62_639)">
<path d="M32.3128 25.1164C31.9118 25.1171 31.5211 24.9876 31.1982 24.7468L17.093 14.2169L2.98773 24.7468C2.78971 24.8949 2.56479 25.0021 2.32583 25.0622C2.08687 25.1224 1.83854 25.1343 1.59502 25.0974C1.3515 25.0604 1.11755 24.9753 0.906549 24.8468C0.695544 24.7184 0.511607 24.5491 0.365241 24.3487C0.218876 24.1483 0.112947 23.9207 0.0535029 23.6789C-0.00594092 23.4371 -0.0177355 23.1858 0.0187927 22.9394C0.0925645 22.4417 0.358687 21.9941 0.758615 21.6949L15.9784 10.3215C16.301 10.0799 16.6917 9.94946 17.093 9.94946C17.4943 9.94946 17.885 10.0799 18.2075 10.3215L33.4274 21.6949C33.7452 21.9319 33.9808 22.2645 34.1007 22.6451C34.2207 23.0257 34.2187 23.4349 34.0951 23.8143C33.9715 24.1937 33.7326 24.5239 33.4125 24.7577C33.0925 24.9916 32.7076 25.1171 32.3128 25.1164Z" fill="white"/>
<path d="M32.3128 15.1645C31.9118 15.1652 31.5211 15.0357 31.1983 14.7949L17.093 4.265L2.98774 14.7949C2.58781 15.094 2.08684 15.2201 1.59502 15.1455C1.10321 15.0708 0.660849 14.8015 0.365249 14.3968C0.06965 13.9921 -0.0549714 13.4852 0.0188004 12.9875C0.0925723 12.4898 0.358694 12.0421 0.758623 11.743L15.9784 0.36961C16.301 0.127979 16.6917 -0.00244141 17.093 -0.00244141C17.4943 -0.00244141 17.885 0.127979 18.2076 0.36961L33.4274 11.743C33.7452 11.98 33.9808 12.3126 34.1007 12.6932C34.2207 13.0738 34.2187 13.483 34.0951 13.8624C33.9715 14.2418 33.7326 14.572 33.4125 14.8058C33.0925 15.0397 32.7076 15.1652 32.3128 15.1645Z" fill="white"/>
</g>
<defs>
<clipPath id="clip0_62_639">
<rect width="34.186" height="25.1163" fill="white"/>
</clipPath>
</defs>
</svg>
