<svg width="35" height="16" viewBox="0 0 35 16" fill="none" xmlns="http://www.w3.org/2000/svg">
<path d="M32.3128 15.1645C31.9118 15.1652 31.5211 15.0357 31.1983 14.7949L17.093 4.265L2.98774 14.7949C2.58781 15.094 2.08684 15.2201 1.59502 15.1455C1.10321 15.0708 0.660849 14.8015 0.365249 14.3968C0.06965 13.9921 -0.0549714 13.4852 0.0188004 12.9875C0.0925723 12.4898 0.358694 12.0421 0.758623 11.743L15.9784 0.36961C16.301 0.127979 16.6917 -0.00244141 17.093 -0.00244141C17.4943 -0.00244141 17.885 0.127979 18.2076 0.36961L33.4274 11.743C33.7452 11.98 33.9808 12.3126 34.1007 12.6932C34.2207 13.0738 34.2187 13.483 34.0951 13.8624C33.9715 14.2418 33.7326 14.572 33.4125 14.8058C33.0925 15.0397 32.7076 15.1652 32.3128 15.1645Z" fill="white"/>
</svg>
